# xmcd
#
# Track frame offsets: 
#        150
#        14309
#        29949
#        45818
#        60695
#        76305
#        102122
#        122470
#        144259
#        160327
#        177976
#
# Disc length: 2615 seconds
#
# Revision: 2
# Processed by: cddbd v1.5.2PL0 Copyright (c) Steve Scherf et al.
# Submitted via: ExactAudioCopy v1.0b4
#
DISCID=840a350b
DTITLE=The Kentucky Headhunters with Johnnie Johnson - Meet Me In Blue
DTITLE=sland
DYEAR=2015
DGENRE=Blues
TTITLE0=Stumblin'
TTITLE1=Walking With The Wolf 
TTITLE2=Little Queenie 
TTITLE3=She's Got To Have It 
TTITLE4=Party In Heaven 
TTITLE5=Meet Me In Bluesland
TTITLE6=King Rooster
TTITLE7=Shufflin' Back To Memphis 
TTITLE8=Fast Train
TTITLE9=Sometime
TTITLE10=Superman Blues
EXTD=YEAR: 2015
EXTT0=
EXTT1=
EXTT2=
EXTT3=
EXTT4=
EXTT5=
EXTT6=
EXTT7=
EXTT8=
EXTT9=
EXTT10=
PLAYORDER=
